PathFileType	4	(X / Y / Z)	Demo_152250_11_September_2019	Demo_152250_11_September_2019.trc
DataRate	CameraRate	NumFrames	NumMarkers	Units	OrigDataRate	OrigDataStartFrame	OrigNumFrames
50	50	18	25	m	50	323	2190
Frame#	Time		SpineBase		SpineMid		Neck		Head		ShoulderLeft		ElbowLeft		WristLeft		HandLeft		ShoulderRight		ElbowRight		WristRight		HandRight		HipLeft		KneeLeft		AnkleLeft		FootLeft		HipRight		KneeRight		AnkleRight		FootRight		SpineShoulder		HandTipLeft		LeftThumb		HandTipRight		ThumbRight		
X1	Y1	Z1	X2	Y2	Z2	X3	Y3	Z3	X4	Y4	Z4	X5	Y5	Z5	X6	Y6	Z6	X7	Y7	Z7	X8	Y8	Z8	X9	Y9	Z9	X10	Y10	Z10	X11	Y11	Z11	X12	Y12	Z12	X13	Y13	Z13	X14	Y14	Z14	X15	Y15	Z15	X16	Y16	Z16	X17	Y17	Z17	X18	Y18	Z18	X19	Y19	Z19	X20	Y20	Z20	X21	Y21	Z21	X22	Y22	Z22	X23	Y23	Z23	X24	Y24	Z24	X25	Y25	Z25	
274	30.411	-0.009	0.733	1.564	-0.024	1.027	1.528	-0.032	1.308	1.480	-0.023	1.453	1.439	-0.175	1.205	1.469	-0.215	0.967	1.474	-0.245	0.759	1.452	-0.248	0.699	1.455	0.128	1.198	1.498	0.232	1.018	1.609	0.347	0.898	1.658	0.397	0.829	1.669	-0.083	0.735	1.525	-0.093	0.436	1.596	-0.079	0.270	1.669	-0.065	0.253	1.627	0.065	0.741	1.538	0.074	0.491	1.549	-0.050	0.029	1.606	-0.034	0.010	1.487	-0.030	1.239	1.494	-0.235	0.627	1.444	-0.227	0.702	1.417	0.419	0.764	1.690	0.417	0.796	1.627
275	30.427	-0.010	0.738	1.590	-0.022	1.030	1.544	-0.031	1.309	1.489	-0.022	1.454	1.447	-0.175	1.206	1.472	-0.217	0.969	1.483	-0.246	0.760	1.461	-0.251	0.703	1.466	0.139	1.206	1.534	0.311	1.085	1.635	0.545	1.106	1.635	0.617	1.108	1.634	-0.083	0.740	1.545	-0.098	0.442	1.613	-0.081	0.270	1.677	-0.067	0.254	1.630	0.064	0.748	1.570	0.081	0.458	1.566	0.047	0.199	1.601	0.038	0.192	1.537	-0.029	1.241	1.504	-0.240	0.631	1.456	-0.229	0.705	1.428	0.655	1.066	1.657	0.615	1.071	1.592
276	30.444	-0.010	0.738	1.590	-0.022	1.030	1.544	-0.031	1.309	1.489	-0.022	1.454	1.447	-0.175	1.206	1.472	-0.217	0.969	1.483	-0.246	0.760	1.461	-0.251	0.703	1.466	0.139	1.206	1.534	0.311	1.085	1.635	0.545	1.106	1.635	0.617	1.108	1.634	-0.083	0.740	1.545	-0.098	0.442	1.613	-0.081	0.270	1.677	-0.067	0.254	1.630	0.064	0.748	1.570	0.081	0.458	1.566	0.047	0.199	1.601	0.038	0.192	1.537	-0.029	1.241	1.504	-0.240	0.631	1.456	-0.229	0.705	1.428	0.655	1.066	1.657	0.615	1.071	1.592
277	30.461	-0.010	0.743	1.604	-0.019	1.033	1.558	-0.028	1.312	1.501	-0.020	1.455	1.455	-0.174	1.207	1.476	-0.218	0.971	1.491	-0.248	0.762	1.467	-0.254	0.706	1.472	0.147	1.212	1.555	0.369	1.143	1.650	0.559	1.207	1.635	0.635	1.234	1.626	-0.083	0.744	1.557	-0.102	0.446	1.622	-0.083	0.271	1.682	-0.068	0.256	1.633	0.064	0.752	1.586	0.089	0.443	1.576	0.082	0.274	1.601	0.074	0.268	1.563	-0.026	1.244	1.517	-0.243	0.634	1.463	-0.232	0.707	1.436	0.745	1.249	1.648	0.700	1.251	1.566
278	30.478	-0.010	0.743	1.604	-0.019	1.033	1.558	-0.028	1.312	1.501	-0.020	1.455	1.455	-0.174	1.207	1.476	-0.218	0.971	1.491	-0.248	0.762	1.467	-0.254	0.706	1.472	0.147	1.212	1.555	0.369	1.143	1.650	0.559	1.207	1.635	0.635	1.234	1.626	-0.083	0.744	1.557	-0.102	0.446	1.622	-0.083	0.271	1.682	-0.068	0.256	1.633	0.064	0.752	1.586	0.089	0.443	1.576	0.082	0.274	1.601	0.074	0.268	1.563	-0.026	1.244	1.517	-0.243	0.634	1.463	-0.232	0.707	1.436	0.745	1.249	1.648	0.700	1.251	1.566
279	30.494	-0.009	0.746	1.615	-0.017	1.035	1.569	-0.025	1.314	1.512	-0.017	1.457	1.463	-0.171	1.209	1.482	-0.219	0.974	1.497	-0.249	0.764	1.472	-0.257	0.708	1.475	0.154	1.217	1.569	0.394	1.180	1.654	0.581	1.306	1.625	0.658	1.362	1.615	-0.082	0.747	1.567	-0.103	0.449	1.628	-0.084	0.272	1.686	-0.070	0.257	1.635	0.064	0.755	1.597	0.095	0.436	1.582	0.099	0.307	1.604	0.093	0.303	1.579	-0.023	1.246	1.528	-0.245	0.636	1.468	-0.233	0.710	1.440	0.725	1.391	1.631	0.674	1.382	1.566
280	30.511	-0.009	0.746	1.615	-0.017	1.035	1.569	-0.025	1.314	1.512	-0.017	1.457	1.463	-0.171	1.209	1.482	-0.219	0.974	1.497	-0.249	0.764	1.472	-0.257	0.708	1.475	0.154	1.217	1.569	0.394	1.180	1.654	0.581	1.306	1.625	0.658	1.362	1.615	-0.082	0.747	1.567	-0.103	0.449	1.628	-0.084	0.272	1.686	-0.070	0.257	1.635	0.064	0.755	1.597	0.095	0.436	1.582	0.099	0.307	1.604	0.093	0.303	1.579	-0.023	1.246	1.528	-0.245	0.636	1.468	-0.233	0.710	1.440	0.725	1.391	1.631	0.674	1.382	1.566
281	30.528	-0.009	0.750	1.623	-0.015	1.038	1.578	-0.022	1.317	1.521	-0.013	1.458	1.471	-0.168	1.212	1.489	-0.219	0.977	1.503	-0.251	0.766	1.475	-0.259	0.710	1.477	0.160	1.222	1.578	0.405	1.204	1.656	0.530	1.330	1.625	0.567	1.382	1.612	-0.081	0.751	1.574	-0.104	0.451	1.632	-0.084	0.273	1.689	-0.071	0.258	1.637	0.064	0.758	1.606	0.104	0.434	1.587	0.114	0.324	1.613	0.110	0.322	1.605	-0.020	1.249	1.538	-0.247	0.638	1.471	-0.234	0.711	1.443	0.664	1.469	1.616	0.620	1.458	1.566
282	30.544	-0.009	0.750	1.623	-0.015	1.038	1.578	-0.022	1.317	1.521	-0.013	1.458	1.471	-0.168	1.212	1.489	-0.219	0.977	1.503	-0.251	0.766	1.475	-0.259	0.710	1.477	0.160	1.222	1.578	0.405	1.204	1.656	0.530	1.330	1.625	0.567	1.382	1.612	-0.081	0.751	1.574	-0.104	0.451	1.632	-0.084	0.273	1.689	-0.071	0.258	1.637	0.064	0.758	1.606	0.104	0.434	1.587	0.114	0.324	1.613	0.110	0.322	1.605	-0.020	1.249	1.538	-0.247	0.638	1.471	-0.234	0.711	1.443	0.664	1.469	1.616	0.620	1.458	1.566
283	30.561	-0.007	0.753	1.630	-0.012	1.041	1.586	-0.018	1.319	1.530	-0.009	1.460	1.480	-0.163	1.214	1.497	-0.218	0.979	1.510	-0.252	0.768	1.477	-0.260	0.713	1.478	0.166	1.227	1.585	0.409	1.220	1.655	0.523	1.390	1.619	0.551	1.449	1.607	-0.080	0.755	1.581	-0.105	0.453	1.636	-0.085	0.274	1.691	-0.071	0.260	1.639	0.066	0.761	1.613	0.118	0.438	1.593	0.129	0.318	1.629	0.114	0.322	1.647	-0.016	1.251	1.546	-0.248	0.640	1.473	-0.235	0.712	1.446	0.625	1.544	1.608	0.577	1.522	1.573
284	30.578	-0.007	0.753	1.630	-0.012	1.041	1.586	-0.018	1.319	1.530	-0.009	1.460	1.480	-0.163	1.214	1.497	-0.218	0.979	1.510	-0.252	0.768	1.477	-0.260	0.713	1.478	0.166	1.227	1.585	0.409	1.220	1.655	0.523	1.390	1.619	0.551	1.449	1.607	-0.080	0.755	1.581	-0.105	0.453	1.636	-0.085	0.274	1.691	-0.071	0.260	1.639	0.066	0.761	1.613	0.118	0.438	1.593	0.129	0.318	1.629	0.114	0.322	1.647	-0.016	1.251	1.546	-0.248	0.640	1.473	-0.235	0.712	1.446	0.625	1.544	1.608	0.577	1.522	1.573
285	30.594	-0.003	0.757	1.637	-0.008	1.044	1.593	-0.013	1.321	1.538	-0.003	1.461	1.488	-0.157	1.217	1.507	-0.216	0.982	1.516	-0.253	0.769	1.479	-0.261	0.715	1.478	0.174	1.233	1.592	0.417	1.243	1.655	0.509	1.404	1.619	0.519	1.469	1.608	-0.076	0.759	1.587	-0.105	0.455	1.638	-0.085	0.275	1.694	-0.072	0.260	1.640	0.070	0.765	1.620	0.136	0.446	1.600	0.148	0.280	1.682	0.148	0.258	1.638	-0.012	1.253	1.554	-0.249	0.642	1.475	-0.236	0.714	1.447	0.577	1.575	1.610	0.533	1.552	1.577
286	30.611	-0.003	0.757	1.637	-0.008	1.044	1.593	-0.013	1.321	1.538	-0.003	1.461	1.488	-0.157	1.217	1.507	-0.216	0.982	1.516	-0.253	0.769	1.479	-0.261	0.715	1.478	0.174	1.233	1.592	0.417	1.243	1.655	0.509	1.404	1.619	0.519	1.469	1.608	-0.076	0.759	1.587	-0.105	0.455	1.638	-0.085	0.275	1.694	-0.072	0.260	1.640	0.070	0.765	1.620	0.136	0.446	1.600	0.148	0.280	1.682	0.148	0.258	1.638	-0.012	1.253	1.554	-0.249	0.642	1.475	-0.236	0.714	1.447	0.577	1.575	1.610	0.533	1.552	1.577
287	30.628	0.002	0.761	1.643	-0.003	1.047	1.600	-0.008	1.322	1.545	0.004	1.463	1.497	-0.154	1.219	1.512	-0.212	0.984	1.522	-0.254	0.772	1.481	-0.260	0.717	1.479	0.180	1.238	1.596	0.416	1.254	1.653	0.505	1.470	1.616	0.514	1.540	1.607	-0.071	0.764	1.593	-0.105	0.458	1.640	-0.085	0.276	1.696	-0.072	0.261	1.641	0.075	0.768	1.627	0.156	0.457	1.611	0.162	0.272	1.726	0.174	0.218	1.639	-0.007	1.255	1.561	-0.249	0.645	1.475	-0.235	0.716	1.449	0.562	1.636	1.609	0.507	1.597	1.588
288	30.645	0.002	0.761	1.643	-0.003	1.047	1.600	-0.008	1.322	1.545	0.004	1.463	1.497	-0.154	1.219	1.512	-0.212	0.984	1.522	-0.254	0.772	1.481	-0.260	0.717	1.479	0.180	1.238	1.596	0.416	1.254	1.653	0.505	1.470	1.616	0.514	1.540	1.607	-0.071	0.764	1.593	-0.105	0.458	1.640	-0.085	0.276	1.696	-0.072	0.261	1.641	0.075	0.768	1.627	0.156	0.457	1.611	0.162	0.272	1.726	0.174	0.218	1.639	-0.007	1.255	1.561	-0.249	0.645	1.475	-0.235	0.716	1.449	0.562	1.636	1.609	0.507	1.597	1.588
289	30.661	0.002	0.761	1.643	-0.003	1.047	1.600	-0.008	1.322	1.545	0.004	1.463	1.497	-0.154	1.219	1.512	-0.212	0.984	1.522	-0.254	0.772	1.481	-0.260	0.717	1.479	0.180	1.238	1.596	0.416	1.254	1.653	0.505	1.470	1.616	0.514	1.540	1.607	-0.071	0.764	1.593	-0.105	0.458	1.640	-0.085	0.276	1.696	-0.072	0.261	1.641	0.075	0.768	1.627	0.156	0.457	1.611	0.162	0.272	1.726	0.174	0.218	1.639	-0.007	1.255	1.561	-0.249	0.645	1.475	-0.235	0.716	1.449	0.562	1.636	1.609	0.507	1.597	1.588
290	30.678	0.002	0.761	1.643	-0.003	1.047	1.600	-0.008	1.322	1.545	0.004	1.463	1.497	-0.154	1.219	1.512	-0.212	0.984	1.522	-0.254	0.772	1.481	-0.260	0.717	1.479	0.180	1.238	1.596	0.416	1.254	1.653	0.505	1.470	1.616	0.514	1.540	1.607	-0.071	0.764	1.593	-0.105	0.458	1.640	-0.085	0.276	1.696	-0.072	0.261	1.641	0.075	0.768	1.627	0.156	0.457	1.611	0.162	0.272	1.726	0.174	0.218	1.639	-0.007	1.255	1.561	-0.249	0.645	1.475	-0.235	0.716	1.449	0.562	1.636	1.609	0.507	1.597	1.588
291	30.695	0.016	0.768	1.655	0.010	1.052	1.613	0.003	1.326	1.559	0.016	1.466	1.512	-0.138	1.225	1.533	-0.197	0.989	1.538	-0.249	0.781	1.488	-0.251	0.726	1.485	0.195	1.244	1.604	0.417	1.262	1.653	0.500	1.485	1.616	0.517	1.541	1.617	-0.058	0.771	1.606	-0.104	0.461	1.642	-0.084	0.278	1.699	-0.072	0.261	1.641	0.088	0.775	1.637	0.190	0.474	1.639	0.202	0.255	1.807	0.222	0.169	1.693	0.005	1.259	1.575	-0.247	0.652	1.478	-0.231	0.722	1.454	0.550	1.639	1.616	0.494	1.602	1.599
